<svg xmlns="http://www.w3.org/2000/svg" width="1200" height="630" viewBox="0 0 1200 630" role="img" aria-label="hallx open graph image">
  <defs>
    <linearGradient id="bg" x1="0%" y1="0%" x2="100%" y2="100%">
      <stop offset="0%" stop-color="#ecfeff" />
      <stop offset="55%" stop-color="#f8fafc" />
      <stop offset="100%" stop-color="#ccfbf1" />
    </linearGradient>
    <linearGradient id="accent" x1="0%" y1="0%" x2="100%" y2="100%">
      <stop offset="0%" stop-color="#14b8a6" />
      <stop offset="100%" stop-color="#0f766e" />
    </linearGradient>
    <filter id="shadow" x="-20%" y="-20%" width="140%" height="140%">
      <feDropShadow dx="0" dy="16" stdDeviation="24" flood-color="#0f172a" flood-opacity="0.10" />
    </filter>
  </defs>

  <rect width="1200" height="630" fill="url(#bg)" />
  <circle cx="1040" cy="118" r="160" fill="#99f6e4" opacity="0.28" />
  <circle cx="143" cy="560" r="180" fill="#14b8a6" opacity="0.10" />
  <path d="M0 494C150 435 308 444 454 483C600 522 728 591 897 568C1034 549 1128 471 1200 416V630H0Z" fill="#ffffff" opacity="0.75" />

  <g opacity="0.18">
    <path d="M92 0V630" stroke="#0f766e" stroke-width="1" />
    <path d="M244 0V630" stroke="#0f766e" stroke-width="1" />
    <path d="M396 0V630" stroke="#0f766e" stroke-width="1" />
    <path d="M548 0V630" stroke="#0f766e" stroke-width="1" />
    <path d="M700 0V630" stroke="#0f766e" stroke-width="1" />
    <path d="M852 0V630" stroke="#0f766e" stroke-width="1" />
    <path d="M1004 0V630" stroke="#0f766e" stroke-width="1" />
  </g>

  <g filter="url(#shadow)">
    <rect x="78" y="66" width="1044" height="498" rx="34" fill="#ffffff" />
    <rect x="78" y="66" width="1044" height="498" rx="34" fill="none" stroke="#d1fae5" />
  </g>

  <rect x="126" y="114" width="172" height="56" rx="28" fill="#ecfdf5" stroke="#99f6e4" />
  <circle cx="160" cy="142" r="18" fill="url(#accent)" />
  <path d="M151 151V133H158V140H169V133H176V151H169V144H158V151Z" fill="#ffffff" />
  <text x="191" y="148" fill="#0f766e" font-size="28" font-family="'Segoe UI', Arial, sans-serif" font-weight="700">hallx</text>

  <text x="126" y="222" fill="#0f766e" font-size="22" font-family="'Segoe UI', Arial, sans-serif" font-weight="700" letter-spacing="2">LLM GUARDRAILS FOR PRODUCTION</text>
  <text x="126" y="306" fill="#0f172a" font-size="58" font-family="'Segoe UI', Arial, sans-serif" font-weight="800">hallx</text>
  <text x="126" y="362" fill="#475569" font-size="29" font-family="'Segoe UI', Arial, sans-serif" font-weight="500">Score schema validity, consistency, and grounding</text>
  <text x="126" y="404" fill="#475569" font-size="29" font-family="'Segoe UI', Arial, sans-serif" font-weight="500">before your AI app takes action.</text>

  <rect x="894" y="124" width="182" height="182" rx="28" fill="#f0fdfa" stroke="#99f6e4" />
  <rect x="928" y="158" width="114" height="18" rx="9" fill="#14b8a6" opacity="0.15" />
  <rect x="928" y="196" width="92" height="18" rx="9" fill="#14b8a6" opacity="0.22" />
  <rect x="928" y="234" width="120" height="18" rx="9" fill="#14b8a6" opacity="0.15" />
  <rect x="928" y="272" width="78" height="18" rx="9" fill="#14b8a6" opacity="0.22" />

  <rect x="126" y="494" width="240" height="34" rx="17" fill="#f8fafc" stroke="#e2e8f0" />
  <text x="146" y="516" fill="#475569" font-size="19" font-family="'Segoe UI', Arial, sans-serif" font-weight="600">Built by Dhanush Kandhan</text>

  <rect x="904" y="486" width="172" height="40" rx="20" fill="#0f766e" />
  <text x="956" y="512" fill="#ecfeff" font-size="19" font-family="'Segoe UI', Arial, sans-serif" font-weight="700">hallx</text>
</svg>
